<svg width="54" height="41" viewBox="0 0 54 41" fill="none" xmlns="http://www.w3.org/2000/svg">
<path d="M26.5089 11.6901C26.9508 11.6901 27.309 11.3108 27.309 10.843C27.309 10.3751 26.9508 9.99586 26.5089 9.99586C26.0671 9.99586 25.7089 10.3751 25.7089 10.843C25.7089 11.3108 26.0671 11.6901 26.5089 11.6901Z" fill="black"/>
<path d="M26.5089 29.084C26.9508 29.084 27.309 28.7048 27.309 28.2369C27.309 27.7691 26.9508 27.3898 26.5089 27.3898C26.0671 27.3898 25.7089 27.7691 25.7089 28.2369C25.7089 28.7048 26.0671 29.084 26.5089 29.084Z" fill="black"/>
<path d="M49.2171 20.0143C49.6589 20.0143 50.0171 19.6351 50.0171 19.1672C50.0171 18.6994 49.6589 18.3201 49.2171 18.3201C48.7752 18.3201 48.417 18.6994 48.417 19.1672C48.417 19.6351 48.7752 20.0143 49.2171 20.0143Z" fill="black"/>
<path d="M3.8008 20.0143C4.24267 20.0143 4.60087 19.6351 4.60087 19.1672C4.60087 18.6994 4.24267 18.3201 3.8008 18.3201C3.35894 18.3201 3.00073 18.6994 3.00073 19.1672C3.00073 19.6351 3.35894 20.0143 3.8008 20.0143Z" fill="black"/>
<path d="M38.8631 17.6571C39.3049 17.6571 39.6631 17.2778 39.6631 16.81C39.6631 16.3422 39.3049 15.9629 38.8631 15.9629C38.4212 15.9629 38.063 16.3422 38.063 16.81C38.063 17.2778 38.4212 17.6571 38.8631 17.6571Z" fill="black"/>
<path d="M14.1548 17.6571C14.5967 17.6571 14.9549 17.2778 14.9549 16.81C14.9549 16.3422 14.5967 15.9629 14.1548 15.9629C13.7129 15.9629 13.3547 16.3422 13.3547 16.81C13.3547 17.2778 13.7129 17.6571 14.1548 17.6571Z" fill="black"/>
<path d="M49.551 35.9174H3.46698C2.14138 35.9174 1.06677 37.0551 1.06677 38.4587C1.06677 39.8622 2.14138 41 3.46698 41H49.551C50.8766 41 51.9512 39.8622 51.9512 38.4587C51.9512 37.0551 50.8766 35.9174 49.551 35.9174Z" fill="#FED030"/>
<path d="M49.5509 35.9174H47.9508C48.5874 35.9174 49.1979 36.1851 49.648 36.6617C50.0981 37.1383 50.351 37.7847 50.351 38.4587C50.351 39.1327 50.0981 39.7791 49.648 40.2557C49.1979 40.7323 48.5874 41 47.9508 41H49.5509C50.1875 41 50.798 40.7323 51.2481 40.2557C51.6983 39.7791 51.9512 39.1327 51.9512 38.4587C51.9512 37.7847 51.6983 37.1383 51.2481 36.6617C50.798 36.1851 50.1875 35.9174 49.5509 35.9174Z" fill="#F8BE32"/>
<path d="M4.02701 35.9174C3.36065 31.9943 2.69321 28.0716 2.02471 24.1493L0 14.2879L7.22729 17.5069L7.20596 17.5475C6.88674 17.941 6.68084 18.4231 6.61267 18.9368C6.54451 19.4504 6.61696 19.9739 6.82141 20.4453C7.02586 20.9166 7.35374 21.316 7.76613 21.5959C8.17852 21.8759 8.65812 22.0247 9.14799 22.0247C9.63787 22.0247 10.1175 21.8759 10.5298 21.5959C10.9422 21.316 11.2701 20.9166 11.4746 20.4453C11.679 19.9739 11.7515 19.4504 11.6833 18.9368C11.6151 18.4231 11.4092 17.941 11.09 17.5475L11.0676 17.5069C11.5455 14.5928 12.0238 11.6784 12.5024 8.76361L17.3615 16.1515C17.2076 16.6473 17.1588 17.1729 17.2186 17.691C17.4319 19.4564 18.8848 20.3712 19.0555 20.4752C19.6907 20.8556 20.4143 21.0385 21.1433 21.003C21.8723 20.9674 22.577 20.7148 23.1764 20.2741C24.8544 19.0181 24.7904 16.8586 24.7765 16.6248C24.6955 14.8763 23.5807 13.3007 21.9358 12.5937L26.4812 0H26.5367L31.079 12.5937C29.434 13.3007 28.3192 14.8763 28.2382 16.6248C28.2275 16.8586 28.1635 19.0181 29.8383 20.2741C30.4378 20.7146 31.1426 20.967 31.8716 21.0024C32.6005 21.0378 33.3241 20.8546 33.9592 20.474C34.1299 20.3701 35.5828 19.4575 35.7962 17.6899C35.8559 17.1718 35.8071 16.6462 35.6532 16.1504L40.5123 8.76248C40.9902 11.6765 41.4685 14.591 41.9471 17.5058L41.9247 17.5464C41.6055 17.9399 41.3996 18.422 41.3314 18.9356C41.2632 19.4493 41.3357 19.9728 41.5401 20.4442C41.7446 20.9155 42.0725 21.3148 42.4849 21.5948C42.8973 21.8747 43.3769 22.0235 43.8667 22.0235C44.3566 22.0235 44.8362 21.8747 45.2486 21.5948C45.661 21.3148 45.9889 20.9155 46.1933 20.4442C46.3978 19.9728 46.4702 19.4493 46.402 18.9356C46.3339 18.422 46.128 17.9399 45.8088 17.5464L45.7874 17.5058L53.0179 14.2879L50.9911 24.155C50.3233 28.078 49.6558 32.0007 48.9888 35.923L4.02701 35.9174Z" fill="#FED030"/>
<path d="M22.6132 12.9517C22.4615 12.68 22.2846 12.425 22.0851 12.1904C22.036 12.3248 21.988 12.4604 21.939 12.5948C22.172 12.6953 22.3974 12.8146 22.6132 12.9517ZM40.3502 15.8127L40.3278 15.8533C40.0549 16.1895 39.8641 16.5913 39.772 17.0237C39.6798 17.456 39.6893 17.9057 39.7994 18.3333C39.9095 18.7609 40.117 19.1534 40.4036 19.4764C40.6903 19.7994 41.0474 20.043 41.4436 20.186C41.3004 19.7398 41.2696 19.2617 41.3541 18.7991C41.4387 18.3364 41.6357 17.905 41.9258 17.5475L41.9482 17.5069C41.4695 14.5928 40.992 11.6784 40.5155 8.76361C40.1635 9.30049 39.8107 9.83661 39.4573 10.372L40.3502 15.8127ZM29.4788 10.8994C27.8339 11.6065 26.7191 13.1821 26.638 14.9306C26.6274 15.1644 26.5634 17.3239 28.2382 18.5799C28.3849 18.6894 28.5389 18.7876 28.699 18.8736C28.3733 18.1753 28.2139 17.4032 28.235 16.6248C28.316 14.8763 29.4308 13.3007 31.0758 12.5937L26.5367 0H26.4812L26.014 1.2989L29.4788 10.8994Z" fill="#F8BE32"/>
<path d="M50.8738 15.2389C50.3802 17.6484 49.8866 20.0539 49.3931 22.4551L47.7065 32.3652C47.6177 32.8868 47.3584 33.3588 46.974 33.6985C46.5896 34.0382 46.1046 34.2239 45.604 34.2231H3.73901L4.02704 35.9174H48.9909L50.9932 24.1493L53.0201 14.2822L50.8738 15.2389ZM15.7614 14.4573C15.6075 14.9531 15.5587 15.4787 15.6184 15.9968C15.8318 17.7622 17.2847 18.677 17.4554 18.7809C17.4917 18.8024 17.5279 18.8216 17.5621 18.8419C17.382 18.4835 17.2645 18.0936 17.2154 17.691C17.1556 17.1729 17.2044 16.6473 17.3583 16.1515L12.5024 8.76361L12.4054 9.35433L15.7614 14.4573ZM5.01059 17.9858C5.0749 18.4848 5.26926 18.9551 5.57187 19.3437C5.87448 19.7323 6.27338 20.024 6.7238 20.186C6.58063 19.7398 6.54979 19.2618 6.63435 18.7991C6.7189 18.3364 6.91593 17.905 7.20598 17.5476L7.22731 17.5069L5.1738 16.5931C5.00489 17.0341 4.9486 17.5145 5.01059 17.9858Z" fill="#F8BE32"/>
<path d="M26.509 31.8512C28.4237 31.8512 29.9759 30.2078 29.9759 28.1804C29.9759 26.1531 28.4237 24.5096 26.509 24.5096C24.5942 24.5096 23.042 26.1531 23.042 28.1804C23.042 30.2078 24.5942 31.8512 26.509 31.8512Z" fill="#EB304A"/>
<path d="M26.5089 24.5096C26.2395 24.5098 25.971 24.5432 25.7089 24.609C26.4679 24.8 27.1439 25.2564 27.6277 25.9044C28.1114 26.5525 28.3745 27.3544 28.3745 28.1804C28.3745 29.0065 28.1114 29.8084 27.6277 30.4564C27.1439 31.1045 26.4679 31.5609 25.7089 31.7518C26.185 31.8716 26.6797 31.8833 27.1604 31.7861C27.6411 31.6889 28.0969 31.4851 28.4979 31.188C28.8988 30.891 29.2359 30.5074 29.4868 30.0625C29.7377 29.6176 29.8968 29.1216 29.9537 28.6069C30.0105 28.0923 29.9638 27.5707 29.8167 27.0765C29.6695 26.5823 29.4252 26.1268 29.0998 25.7397C28.7744 25.3527 28.3753 25.043 27.9287 24.831C27.4822 24.619 26.9983 24.5095 26.5089 24.5096Z" fill="#E4222E"/>
<path d="M44.7505 29.8747C45.6343 29.8747 46.3507 29.1161 46.3507 28.1805C46.3507 27.2448 45.6343 26.4862 44.7505 26.4862C43.8668 26.4862 43.1504 27.2448 43.1504 28.1805C43.1504 29.1161 43.8668 29.8747 44.7505 29.8747Z" fill="#EB304A"/>
<path d="M44.7506 26.4862C44.6347 26.4865 44.5191 26.5001 44.406 26.5269C44.7611 26.6108 45.0786 26.8203 45.3061 27.1209C45.5337 27.4215 45.6577 27.7952 45.6577 28.1804C45.6577 28.5657 45.5337 28.9394 45.3061 29.24C45.0786 29.5406 44.7611 29.7501 44.406 29.834C44.6257 29.8859 44.8532 29.8881 45.0738 29.8406C45.2944 29.793 45.503 29.6967 45.686 29.558C45.869 29.4192 46.0223 29.2412 46.1359 29.0354C46.2495 28.8297 46.3208 28.6009 46.3452 28.364C46.3696 28.1271 46.3465 27.8874 46.2774 27.6605C46.2083 27.4337 46.0948 27.2249 45.9443 27.0477C45.7938 26.8705 45.6097 26.7288 45.404 26.6321C45.1983 26.5354 44.9757 26.4856 44.7506 26.4862Z" fill="#E4222E"/>
<path d="M8.26737 29.8747C9.15111 29.8747 9.86751 29.1161 9.86751 28.1805C9.86751 27.2448 9.15111 26.4862 8.26737 26.4862C7.38364 26.4862 6.66724 27.2448 6.66724 28.1805C6.66724 29.1161 7.38364 29.8747 8.26737 29.8747Z" fill="#EB304A"/>
<path d="M16.9081 31.9969L14.1548 28.1804L16.9081 24.3639L19.6614 28.1804L16.9081 31.9969Z" fill="#1CABE1"/>
<path d="M16.9082 24.3639L16.1082 25.4697L17.5675 27.4915C17.7095 27.6884 17.7865 27.9293 17.7865 28.1771C17.7865 28.4248 17.7095 28.6657 17.5675 28.8626L16.1082 30.8912L16.9082 32.0003L19.6615 28.1804L16.9082 24.3639Z" fill="#199AD5"/>
<path d="M36.1097 31.9969L33.3564 28.1804L36.1097 24.3639L38.8631 28.1804L36.1097 31.9969Z" fill="#1CABE1"/>
<path d="M36.1098 24.3639L35.3097 25.4697L36.769 27.4915C36.9111 27.6884 36.988 27.9293 36.988 28.1771C36.988 28.4248 36.9111 28.6657 36.769 28.8626L35.3097 30.8912L36.1098 32.0003L38.8631 28.1804L36.1098 24.3639Z" fill="#199AD5"/>
<path d="M26.5089 11.6901C26.9508 11.6901 27.309 11.3108 27.309 10.843C27.309 10.3751 26.9508 9.99586 26.5089 9.99586C26.0671 9.99586 25.7089 10.3751 25.7089 10.843C25.7089 11.3108 26.0671 11.6901 26.5089 11.6901Z" fill="#EB304A"/>
<path d="M26.5089 29.084C26.9508 29.084 27.309 28.7048 27.309 28.2369C27.309 27.7691 26.9508 27.3898 26.5089 27.3898C26.0671 27.3898 25.7089 27.7691 25.7089 28.2369C25.7089 28.7048 26.0671 29.084 26.5089 29.084Z" fill="white"/>
<path d="M49.2171 20.0143C49.6589 20.0143 50.0171 19.6351 50.0171 19.1672C50.0171 18.6994 49.6589 18.3201 49.2171 18.3201C48.7752 18.3201 48.417 18.6994 48.417 19.1672C48.417 19.6351 48.7752 20.0143 49.2171 20.0143Z" fill="#EB304A"/>
<path d="M3.8008 20.0143C4.24267 20.0143 4.60087 19.6351 4.60087 19.1672C4.60087 18.6994 4.24267 18.3201 3.8008 18.3201C3.35894 18.3201 3.00073 18.6994 3.00073 19.1672C3.00073 19.6351 3.35894 20.0143 3.8008 20.0143Z" fill="#EB304A"/>
<path d="M38.8631 17.6571C39.3049 17.6571 39.6631 17.2778 39.6631 16.81C39.6631 16.3422 39.3049 15.9629 38.8631 15.9629C38.4212 15.9629 38.063 16.3422 38.063 16.81C38.063 17.2778 38.4212 17.6571 38.8631 17.6571Z" fill="#1CABE1"/>
<path d="M14.1548 17.6571C14.5967 17.6571 14.9549 17.2778 14.9549 16.81C14.9549 16.3422 14.5967 15.9629 14.1548 15.9629C13.7129 15.9629 13.3547 16.3422 13.3547 16.81C13.3547 17.2778 13.7129 17.6571 14.1548 17.6571Z" fill="#1CABE1"/>
<path d="M8.26742 26.4862C8.15151 26.4865 8.03597 26.5001 7.92285 26.5269C8.27796 26.6108 8.59545 26.8203 8.82299 27.1209C9.05053 27.4215 9.17453 27.7952 9.17453 28.1804C9.17453 28.5657 9.05053 28.9394 8.82299 29.24C8.59545 29.5406 8.27796 29.7501 7.92285 29.834C8.14253 29.8859 8.37009 29.8881 8.59064 29.8406C8.8112 29.793 9.0198 29.6967 9.20281 29.558C9.38582 29.4192 9.53913 29.2412 9.65272 29.0354C9.76631 28.8297 9.83763 28.6009 9.86201 28.364C9.8864 28.1271 9.8633 27.8874 9.79423 27.6605C9.72516 27.4337 9.61167 27.2249 9.46118 27.0477C9.31069 26.8705 9.12657 26.7288 8.92087 26.6321C8.71517 26.5354 8.4925 26.4856 8.26742 26.4862Z" fill="#E4222E"/>
</svg>
