<svg width="257" height="169" viewBox="0 0 257 169" fill="none" xmlns="http://www.w3.org/2000/svg">
<g clip-path="url(#clip0_7_13)">
<path d="M250.437 163.242L247.899 164.306L242.519 155.171L246.265 153.599L250.437 163.242Z" fill="#FFB6B6"/>
<path d="M229.463 165.607L226.704 165.607L225.392 155.125H229.464L229.463 165.607Z" fill="#FFB6B6"/>
<path d="M229.56 168.442L221.076 168.441V168.336C221.076 167.473 221.424 166.646 222.044 166.036C222.663 165.426 223.503 165.083 224.379 165.083L225.928 163.925L228.82 165.083L229.56 165.084L229.56 168.442Z" fill="#2F2E41"/>
<path d="M251.98 165.056L244.176 168.332L244.133 168.235C243.79 167.441 243.781 166.546 244.108 165.746C244.435 164.945 245.071 164.306 245.877 163.968L246.841 162.304L249.962 162.253L250.644 161.967L251.98 165.056Z" fill="#2F2E41"/>
<path d="M226.757 103.573L222.564 128.721L223.705 132.468L222.208 135.122L224.407 158.431L223.514 160.366L226.008 161.881H231.082L231.352 140.78L232.605 137.682V135.974L235.157 123.107L235.627 137.826L236.369 140.929L235.746 143.138L236.56 144.686L243.542 159.452H249.233L248.793 156.113C249.812 155.605 247.262 154.119 247.017 153.019L247.855 151.162L247.017 147.655L246.249 140.801L247.059 126.334L246.678 106.852C244.767 104.329 242.648 102.383 240.021 101.838L226.757 103.573Z" fill="#2F2E41"/>
<path d="M236.968 70.4552C240.144 70.4552 242.718 67.9193 242.718 64.7911C242.718 61.6629 240.144 59.127 236.968 59.127C233.792 59.127 231.217 61.6629 231.217 64.7911C231.217 67.9193 233.792 70.4552 236.968 70.4552Z" fill="#FFB6B6"/>
<path d="M213.259 109.515C213.187 109.197 213.187 108.867 213.259 108.549C213.33 108.231 213.472 107.932 213.674 107.674C213.875 107.415 214.132 107.203 214.426 107.053C214.719 106.903 215.043 106.818 215.373 106.805L217.69 99.2197L220.368 102.38L217.757 109.098C217.744 109.647 217.526 110.171 217.146 110.572C216.767 110.973 216.25 111.223 215.696 111.275C215.141 111.326 214.587 111.175 214.138 110.851C213.689 110.526 213.376 110.051 213.259 109.515Z" fill="#FFB6B6"/>
<path d="M228.285 78.3372L227.247 76.469L225.909 76.9089C225.909 76.9089 224.433 77.8475 222.365 81.391C221.408 83.0299 219.341 93.5395 219.341 93.5395L214.508 106.143L219.435 106.964L223.546 96.5768L228.311 86.6365L228.285 78.3372Z" fill="#FF2148"/>
<path d="M236.755 103.494C240.804 103.494 244.889 104.279 246.562 107.086C246.518 106.476 246.408 105.417 246.295 104.446L245.876 101.837L246.3 99.4451L246.861 98.8929L245.857 97.9039L246.542 92.9105L248.802 81.1471C248.98 80.2216 248.841 79.2645 248.409 78.4244C247.977 77.5844 247.275 76.9085 246.413 76.502L244.241 75.4732L240.719 72.2561L234.35 72.2092L232.272 74.8702L226.801 76.7003L227.72 95.4104L227.118 96.7936C227.253 96.9157 227.537 97.1764 227.691 97.3444C227.909 97.582 227.632 98.8052 227.447 99.5132L227.192 101.399L227.993 101.962L226.952 103.173L226.745 104.71C227.778 104.469 232.244 103.494 236.755 103.494Z" fill="#FF2148"/>
<path d="M238.439 70.1789C238.464 70.1253 238.489 70.0715 238.513 70.0176C238.504 70.0179 238.494 70.0192 238.485 70.0195L238.439 70.1789Z" fill="#2F2E41"/>
<path d="M242.878 59.3845C242.605 59.1308 242.25 58.9796 241.876 58.9575C241.504 58.9693 241.127 59.3001 241.204 59.6586C240.521 58.4675 239.433 57.5513 238.133 57.071C236.833 56.5907 235.402 56.5769 234.092 57.0321C233.168 57.3532 232.262 57.9958 232.049 58.9381C232.029 59.1856 231.954 59.4256 231.83 59.6418C231.722 59.7573 231.583 59.8394 231.429 59.8779C231.274 59.9163 231.112 59.9096 230.962 59.8583L230.953 59.8557C230.901 59.8384 230.846 59.8367 230.793 59.8508C230.741 59.8649 230.694 59.8942 230.658 59.9349C230.623 59.9756 230.601 60.0258 230.595 60.079C230.589 60.1323 230.599 60.1861 230.624 60.2335L230.886 60.7139C230.556 60.7862 230.214 60.7791 229.887 60.6929C229.833 60.6789 229.776 60.6818 229.724 60.7011C229.671 60.7204 229.626 60.7553 229.594 60.8009C229.563 60.8465 229.546 60.9005 229.547 60.9557C229.548 61.0109 229.566 61.0645 229.599 61.1091C230.034 61.6947 230.601 62.1723 231.256 62.5039C231.911 62.8356 232.636 63.012 233.372 63.0193C234.417 63.013 235.473 62.6583 236.489 62.895C236.883 62.9865 237.25 63.1637 237.565 63.4134C237.88 63.6631 238.134 63.9791 238.309 64.3382C238.483 64.6972 238.574 65.0903 238.575 65.4884C238.575 65.8865 238.485 66.2797 238.311 66.6391C238.623 66.3025 239.227 66.3822 239.546 66.7122C239.694 66.8888 239.802 67.0933 239.866 67.3131C239.93 67.5328 239.947 67.763 239.917 67.9896C239.831 68.6834 239.622 69.357 239.299 69.979C240.534 69.9416 241.728 69.5316 242.72 68.8043C243.711 68.077 244.452 67.0675 244.842 65.9123C245.233 64.757 245.254 63.5115 244.902 62.3441C244.551 61.1768 243.845 60.1437 242.878 59.3845Z" fill="#2F2E41"/>
<path d="M57.0295 38.2371C64.9255 38.2371 71.3264 31.9324 71.3264 24.1551C71.3264 16.3778 64.9255 10.073 57.0295 10.073C49.1336 10.073 42.7327 16.3778 42.7327 24.1551C42.7327 31.9324 49.1336 38.2371 57.0295 38.2371Z" fill="#FF2148"/>
<path d="M16.8468 66.0451C9.6731 50.4158 9.93761 30.6049 21.0709 17.4163C24.7956 35.7045 34.9678 52.1056 49.7876 63.7177C55.5195 68.1756 62.3659 72.546 63.9317 79.5724C64.9061 83.9443 63.525 88.5686 61.1375 92.3769C58.7497 96.1853 55.4216 99.3181 52.1312 102.406L51.7621 103.462C37.4448 93.6984 24.0205 81.6743 16.8468 66.0451Z" fill="#F2F2F2"/>
<path d="M21.3808 17.607C18.8186 31.4263 20.722 46.1413 26.9497 58.8024C28.2961 61.5397 29.9038 64.201 32.0563 66.4026C34.2097 68.6051 36.7845 69.9916 39.7464 70.8434C42.4542 71.6221 45.3155 72.1098 47.7839 73.5233C50.3858 75.0131 52.0005 77.5131 52.6295 80.3799C53.3992 83.8876 52.8433 87.4584 52.1765 90.9318C51.4362 94.7884 50.6052 98.7825 51.678 102.659C51.808 103.129 51.0604 103.3 50.9306 102.831C49.0641 96.0863 52.6931 89.4338 52.1858 82.6524C51.9491 79.4881 50.7428 76.3749 47.9883 74.5415C45.5795 72.9383 42.6293 72.4329 39.8807 71.6677C36.9946 70.8643 34.4027 69.6372 32.1972 67.6015C29.9411 65.5192 28.2244 62.9142 26.8128 60.2228C23.6294 54.1531 21.5309 47.4657 20.4206 40.7326C19.1439 32.9939 19.2206 25.0971 20.6473 17.3839C20.7358 16.9065 21.4687 17.1328 21.3808 17.607Z" fill="white"/>
<path d="M24.705 54.7921C22.381 55.5257 19.8678 55.4217 17.6144 54.4988C15.361 53.5758 13.514 51.8939 12.4033 49.7534C12.1801 49.3195 12.8541 48.9575 13.0776 49.3919C14.1081 51.387 15.8288 52.9536 17.9289 53.8088C20.0291 54.6641 22.3705 54.7517 24.5305 54.0559C25.0001 53.9052 25.1719 54.6423 24.705 54.7921Z" fill="white"/>
<path d="M38.3207 70.6267C40.643 66.2776 41.2158 61.2262 39.9248 56.4797C39.7966 56.0095 40.5441 55.8381 40.6722 56.3078C42.0063 61.2496 41.3993 66.5052 38.9726 71.0257C38.741 71.4564 38.0904 71.0551 38.3207 70.6267Z" fill="white"/>
<path d="M20.1306 33.2394C21.0899 33.1401 22.0091 32.8077 22.8057 32.272C23.6023 31.7363 24.2514 31.0141 24.6946 30.1702C24.9205 29.7368 25.5709 30.1387 25.3465 30.5692C24.8524 31.4993 24.1346 32.296 23.2558 32.8898C22.377 33.4836 21.3639 33.8564 20.3051 33.9756C20.2063 33.995 20.1036 33.9767 20.018 33.9243C19.9323 33.8719 19.8702 33.7893 19.8441 33.6934C19.8215 33.5958 19.8389 33.4934 19.8926 33.4084C19.9462 33.3234 20.0317 33.2626 20.1306 33.2394Z" fill="white"/>
<path d="M80.0307 17.5693C79.8975 17.8439 79.7642 18.1185 79.634 18.3987C77.8617 22.0992 76.3975 25.9354 75.2559 29.8695C75.1627 30.1722 75.0729 30.4805 74.9888 30.7853C72.3409 40.2922 71.5081 50.2007 72.5326 60.0072C72.9439 63.909 73.6559 67.7743 74.6626 71.5698C76.0532 76.8113 77.9844 82.3855 77.5486 87.6194C77.5094 88.1659 77.4358 88.7095 77.3283 89.2471L53.0994 103.824C53.0274 103.83 52.9586 103.841 52.8864 103.847L51.946 104.473C51.8802 104.281 51.8161 104.08 51.7503 103.888C51.7117 103.776 51.6785 103.662 51.6398 103.55C51.6158 103.475 51.592 103.4 51.5659 103.333C51.5578 103.308 51.55 103.283 51.5452 103.263C51.5192 103.197 51.5021 103.132 51.4794 103.071C51.1183 101.95 50.7644 100.825 50.418 99.6952C50.4146 99.6897 50.4146 99.6897 50.4167 99.681C47.7993 91.0656 45.8892 82.1593 45.4122 73.2505C45.3979 72.9825 45.38 72.7092 45.3768 72.4345C45.1844 68.4176 45.3257 64.3921 45.7991 60.3979C46.0655 58.2116 46.4441 56.0401 46.9335 53.8915C48.2087 48.3424 50.3621 43.0254 53.3147 38.1354C59.2023 28.388 68.1893 20.6039 79.1882 17.7772C79.4697 17.7051 79.7459 17.636 80.0307 17.5693Z" fill="#F2F2F2"/>
<path d="M80.164 17.9051C69.6712 27.4196 62.1963 40.2975 59.4297 54.0998C58.8316 57.0839 58.4885 60.1622 58.8614 63.1965C59.2345 66.2321 60.4428 68.866 62.2871 71.3026C63.9731 73.5302 65.9596 75.6164 67.0665 78.2088C68.2333 80.9414 67.9944 83.895 66.7443 86.557C65.2147 89.8141 62.5882 92.3356 59.9327 94.7135C56.9843 97.3537 53.8793 100.05 52.3662 103.782C52.1828 104.234 51.4813 103.927 51.6644 103.476C54.297 96.9833 61.2608 93.8238 65.0009 88.1084C66.7462 85.4415 67.686 82.2404 66.6073 79.143C65.664 76.4345 63.6174 74.2814 61.8904 72.0405C60.0771 69.6875 58.7578 67.1706 58.2411 64.2374C57.7125 61.2368 57.9341 58.1388 58.4522 55.1528C59.6206 48.4186 62.0327 41.8346 65.2618 35.8003C68.9727 28.8642 73.8608 22.6045 79.7148 17.292C80.0772 16.9634 80.5241 17.5786 80.164 17.9051Z" fill="white"/>
<path d="M60.0887 49.5667C57.7847 48.7742 55.8416 47.2009 54.6066 45.1276C53.3715 43.0543 52.9249 40.6161 53.3465 38.2484C53.4334 37.7696 54.1929 37.8803 54.1058 38.3597C53.7091 40.5638 54.1254 42.8349 55.2794 44.7632C56.4335 46.6916 58.2494 48.15 60.3994 48.8754C60.8664 49.0336 60.5531 49.724 60.0887 49.5667Z" fill="white"/>
<path d="M61.2812 70.2839C65.7938 68.1886 69.3388 64.495 71.2094 59.9396C71.3944 59.4881 72.096 59.7946 71.9112 60.2456C69.9557 64.9825 66.2586 68.8188 61.5578 70.9891C61.1096 71.1956 60.8354 70.4894 61.2812 70.2839Z" fill="white"/>
<path d="M69.6104 29.6453C70.437 30.1349 71.3742 30.4146 72.3377 30.4592C73.3012 30.5039 74.2609 30.3122 75.1305 29.9013C75.5759 29.6892 75.8496 30.3958 75.4072 30.6064C74.4442 31.056 73.384 31.2665 72.3194 31.2195C71.2548 31.1724 70.218 30.8693 69.2998 30.3365C69.209 30.2935 69.1382 30.218 69.1019 30.1253C69.0655 30.0327 69.0664 29.93 69.1042 29.8379C69.1458 29.7466 69.2223 29.6751 69.3171 29.6391C69.4119 29.603 69.5173 29.6052 69.6104 29.6453Z" fill="white"/>
<path d="M137.389 48.9257C130.215 33.2964 130.48 13.4855 141.613 0.296875C145.338 18.5851 155.51 34.9862 170.33 46.5983C176.062 51.0562 182.908 55.4267 184.474 62.453C185.448 66.8249 184.067 71.4492 181.68 75.2575C179.292 79.0659 175.964 82.1987 172.673 85.2862L172.304 86.3427C157.987 76.579 144.563 64.555 137.389 48.9257Z" fill="#F2F2F2"/>
<path d="M141.923 0.487601C139.361 14.3069 141.264 29.0219 147.492 41.683C148.838 44.4203 150.446 47.0816 152.598 49.2832C154.752 51.4857 157.327 52.8722 160.289 53.724C162.996 54.5027 165.858 54.9904 168.326 56.4039C170.928 57.8938 172.543 60.3937 173.172 63.2605C173.941 66.7682 173.385 70.339 172.719 73.8124C171.978 77.669 171.147 81.6631 172.22 85.54C172.35 86.0097 171.603 86.1809 171.473 85.7119C169.606 78.9669 173.235 72.3144 172.728 65.533C172.491 62.3687 171.285 59.2555 168.53 57.4221C166.122 55.8189 163.171 55.3135 160.423 54.5484C157.537 53.745 154.945 52.5178 152.739 50.4821C150.483 48.3998 148.767 45.7948 147.355 43.1034C144.172 37.0337 142.073 30.3463 140.963 23.6133C139.686 15.8745 139.763 7.97774 141.189 0.264497C141.278 -0.212868 142.011 0.0133666 141.923 0.487601Z" fill="white"/>
<path d="M145.247 37.6727C142.923 38.4063 140.41 38.3024 138.156 37.3794C135.903 36.4564 134.056 34.7745 132.945 32.634C132.722 32.2002 133.396 31.8381 133.62 32.2725C134.65 34.2676 136.371 35.8342 138.471 36.6894C140.571 37.5447 142.913 37.6323 145.073 36.9365C145.542 36.7858 145.714 37.5229 145.247 37.6727Z" fill="white"/>
<path d="M158.863 53.5073C161.185 49.1582 161.758 44.1068 160.467 39.3603C160.339 38.8901 161.086 38.7188 161.214 39.1884C162.548 44.1302 161.941 49.3858 159.515 53.9063C159.283 54.337 158.632 53.9357 158.863 53.5073Z" fill="white"/>
<path d="M140.673 16.12C141.632 16.0207 142.551 15.6883 143.348 15.1526C144.144 14.6169 144.793 13.8947 145.237 13.0509C145.463 12.6175 146.113 13.0193 145.889 13.4498C145.394 14.3799 144.677 15.1766 143.798 15.7704C142.919 16.3642 141.906 16.737 140.847 16.8562C140.748 16.8756 140.646 16.8573 140.56 16.8049C140.474 16.7525 140.412 16.67 140.386 16.574C140.364 16.4765 140.381 16.374 140.435 16.289C140.488 16.204 140.574 16.1433 140.673 16.12Z" fill="white"/>
<path d="M200.573 0.449951C200.44 0.724518 200.306 0.999088 200.176 1.27927C198.404 4.97978 196.94 8.816 195.798 12.7501C195.705 13.0529 195.615 13.3611 195.531 13.6659C192.883 23.1728 192.05 33.0814 193.075 42.8878C193.486 46.7896 194.198 50.655 195.205 54.4504C196.595 59.6919 198.527 65.2661 198.091 70.5C198.051 71.0465 197.978 71.5902 197.87 72.1278L173.641 86.7043C173.57 86.7102 173.501 86.7217 173.428 86.7278L172.488 87.3534C172.422 87.1612 172.358 86.9605 172.292 86.7683C172.254 86.657 172.221 86.5424 172.182 86.4311C172.158 86.3559 172.134 86.2804 172.108 86.2139C172.1 86.1889 172.092 86.1637 172.087 86.1441C172.061 86.0776 172.044 86.013 172.022 85.9519C171.66 84.831 171.307 83.7056 170.96 82.5758C170.957 82.5703 170.957 82.5703 170.959 82.5616C168.341 73.9462 166.431 65.0399 165.954 56.1311C165.94 55.8631 165.922 55.5898 165.919 55.3151C165.727 51.2983 165.868 47.2727 166.341 43.2785C166.608 41.0923 166.986 38.9207 167.476 36.7721C168.751 31.223 170.904 25.906 173.857 21.016C179.744 11.2687 188.731 3.48451 199.73 0.65779C200.012 0.585679 200.288 0.516615 200.573 0.449951Z" fill="#F0F0F0"/>
<path d="M200.706 0.785729C190.213 10.3002 182.738 23.1781 179.972 36.9805C179.374 39.9645 179.031 43.0428 179.404 46.0771C179.777 49.1127 180.985 51.7467 182.829 54.1832C184.515 56.4108 186.502 58.497 187.609 61.0894C188.775 63.822 188.537 66.7756 187.286 69.4377C185.757 72.6947 183.13 75.2162 180.475 77.5941C177.526 80.2343 174.421 82.9306 172.908 86.6623C172.725 87.1144 172.023 86.8078 172.206 86.3563C174.839 79.8639 181.803 76.7044 185.543 70.989C187.288 68.3221 188.228 65.121 187.149 62.0236C186.206 59.3151 184.159 57.162 182.433 54.9211C180.619 52.5681 179.3 50.0512 178.783 47.118C178.255 44.1174 178.476 41.0194 178.994 38.0334C180.163 31.2992 182.575 24.7152 185.804 18.6809C189.515 11.7448 194.403 5.48513 200.257 0.172648C200.619 -0.156014 201.066 0.459215 200.706 0.785729Z" fill="white"/>
<path d="M180.631 32.4473C178.327 31.6549 176.384 30.0815 175.149 28.0082C173.914 25.9349 173.467 23.4967 173.889 21.129C173.976 20.6502 174.735 20.7609 174.648 21.2403C174.251 23.4444 174.667 25.7155 175.822 27.6439C176.976 29.5722 178.792 31.0307 180.941 31.756C181.409 31.9142 181.095 32.6046 180.631 32.4473Z" fill="white"/>
<path d="M181.823 53.1645C186.336 51.0693 189.881 47.3756 191.752 42.8202C191.936 42.3687 192.638 42.6752 192.453 43.1262C190.498 47.8631 186.801 51.6995 182.1 53.8697C181.652 54.0762 181.378 53.37 181.823 53.1645Z" fill="white"/>
<path d="M190.153 12.5259C190.979 13.0155 191.916 13.2952 192.88 13.3399C193.843 13.3845 194.803 13.1928 195.673 12.7819C196.118 12.5698 196.392 13.2764 195.949 13.487C194.986 13.9366 193.926 14.1471 192.862 14.1001C191.797 14.053 190.76 13.7499 189.842 13.2172C189.751 13.1741 189.68 13.0986 189.644 13.006C189.608 12.9133 189.608 12.8106 189.646 12.7185C189.688 12.6272 189.764 12.5557 189.859 12.5197C189.954 12.4836 190.059 12.4858 190.153 12.5259Z" fill="white"/>
<path d="M45.9564 164.838L48.6046 166.858L58.9009 168.617L70.3452 140.597C70.3452 140.597 77.3534 119.002 96.9766 123.42L160.051 122.315C160.051 122.315 179.417 120.36 182.618 129.356C183.224 131.06 199.578 168.703 199.578 168.703L211.044 167.109L209.669 135.017L182.437 72.752L135.102 69.8408L86.324 73.1662L45.9564 164.838Z" fill="#3F3D56"/>
<path d="M98.3782 125.353C108.442 125.353 116.6 117.317 116.6 107.405C116.6 97.4927 108.442 89.4573 98.3782 89.4573C88.3148 89.4573 80.1567 97.4927 80.1567 107.405C80.1567 117.317 88.3148 125.353 98.3782 125.353Z" fill="#2F2E41"/>
<path d="M159.49 125.353C169.554 125.353 177.712 117.317 177.712 107.405C177.712 97.4927 169.554 89.4573 159.49 89.4573C149.427 89.4573 141.269 97.4927 141.269 107.405C141.269 117.317 149.427 125.353 159.49 125.353Z" fill="#2F2E41"/>
<path d="M77.0731 48.5917L84.5757 47.1426C84.5757 47.1426 141.064 39.2037 176.768 48.5917L174.067 56.0469L79.5961 55.4947L77.0731 48.5917Z" fill="#E6E6E6"/>
<path d="M153.236 87.1104H105.297C99.4762 87.1104 94.4455 83.1405 93.3352 77.6708L88.0888 51.825C87.9728 51.261 87.9774 50.6793 88.1025 50.1172C88.2275 49.555 88.4702 49.0247 88.815 48.5601C89.1757 48.0727 89.6343 47.6635 90.1623 47.358C90.6903 47.0525 91.2764 46.8571 91.8843 46.7841C117.168 43.6928 142.204 43.6876 166.298 46.768C166.897 46.8403 167.475 47.0333 167.996 47.3351C168.516 47.6368 168.968 48.0408 169.323 48.5218C169.665 48.9797 169.909 49.5021 170.038 50.0566C170.166 50.6111 170.178 51.1857 170.072 51.7448L165.229 77.5113C164.183 83.0734 159.14 87.1104 153.236 87.1104Z" fill="#FF2148"/>
<path d="M55.7483 52.7996L55.957 49.101C55.9896 48.5248 56.1634 47.9649 56.4636 47.4693C56.7638 46.9738 57.1814 46.5572 57.6808 46.2553C60.7076 44.4263 68.8725 40.3994 79.2921 42.5103C80.0238 42.6595 80.6911 43.0269 81.2033 43.5628C81.7155 44.0986 82.0478 44.7768 82.1549 45.5051L82.4339 47.4296L55.7483 52.7996Z" fill="#3F3D56"/>
<path d="M202.681 52.7997L175.995 47.4296L176.444 44.3378C176.495 43.9728 176.657 43.6312 176.907 43.3572C177.157 43.0832 177.485 42.8891 177.848 42.8001C189.865 39.8298 199.063 45.1046 201.596 46.7921C201.836 46.9528 202.035 47.1658 202.179 47.4146C202.322 47.6635 202.406 47.9415 202.423 48.2271L202.681 52.7997Z" fill="#3F3D56"/>
<path d="M47.2754 167.25C46.6323 167.257 46.0007 167.082 45.4555 166.745C38.3102 162.636 33.8556 155.105 32.2255 144.367C30.879 135.498 31.4413 124.366 33.8967 111.279C38.2499 88.0776 47.3738 64.8866 51.0944 55.9928C51.5874 54.8189 52.3533 53.7754 53.3306 52.9465C54.3079 52.1175 55.4692 51.5262 56.7209 51.2203C64.3913 49.362 77.7813 46.2446 81.2782 46.2446C86.0703 46.2446 88.6632 50.688 88.689 50.7329L88.7033 50.7696L92.9119 68.7451V69.0045C95.2336 76.742 93.5085 82.3314 91.6512 85.6581C89.6354 89.2689 87.027 91.0716 87.001 91.0894C82.9051 94.1607 76.2321 104.055 69.5909 116.907C62.6895 130.264 57.5735 143.443 55.9058 152.162C53.8645 162.834 50.8721 166.101 48.7213 166.962C48.263 167.15 47.7718 167.247 47.2754 167.25Z" fill="#E6E6E6"/>
<path d="M151.656 84.9014H106.36C103.686 84.8977 101.097 83.98 99.0344 82.3049C96.9716 80.6298 95.5633 78.3013 95.0499 75.717L90.0928 50.5802C89.9827 50.0238 89.9896 49.4511 90.113 48.8974C90.2364 48.3437 90.4738 47.8208 90.8105 47.361C91.1471 46.9013 91.5759 46.5143 92.0703 46.2242C92.5647 45.934 93.1143 45.7468 93.685 45.674C117.576 42.6676 141.233 42.6624 163.999 45.6584C164.562 45.7338 165.103 45.9207 165.591 46.2079C166.078 46.495 166.501 46.8764 166.835 47.329C167.169 47.7816 167.406 48.2961 167.533 48.8415C167.659 49.3869 167.672 49.9518 167.571 50.5023L162.995 75.562C162.518 78.1821 161.121 80.5535 159.048 82.261C156.975 83.9685 154.358 84.9032 151.656 84.9014Z" fill="#E6E6E6"/>
<path d="M211.155 167.25C210.658 167.248 210.167 167.15 209.708 166.962C207.557 166.101 204.565 162.834 202.524 152.162C200.856 143.443 195.74 130.264 188.838 116.907C182.197 104.055 175.524 94.1607 171.423 91.0858C171.402 91.0716 168.794 89.2689 166.778 85.658C164.921 82.3314 163.196 76.742 165.517 69.0045L165.521 68.7141L169.73 50.7502L169.74 50.7329C169.766 50.688 172.359 46.2446 177.151 46.2446C180.648 46.2446 194.038 49.362 201.708 51.2203C202.96 51.5263 204.121 52.1176 205.099 52.9466C206.076 53.7755 206.842 54.8189 207.335 55.9928C211.056 64.8866 220.179 88.0776 224.533 111.279C226.988 124.366 227.55 135.498 226.204 144.367C224.574 155.105 220.119 162.636 212.964 166.752C212.422 167.084 211.794 167.257 211.155 167.25Z" fill="#E6E6E6"/>
<path d="M98.3783 115.136C104.416 115.136 109.311 110.315 109.311 104.368C109.311 98.4204 104.416 93.5991 98.3783 93.5991C92.3403 93.5991 87.4454 98.4204 87.4454 104.368C87.4454 110.315 92.3403 115.136 98.3783 115.136Z" fill="#3F3D56"/>
<path d="M98.3783 111.547C102.404 111.547 105.667 108.333 105.667 104.368C105.667 100.403 102.404 97.1887 98.3783 97.1887C94.3529 97.1887 91.0897 100.403 91.0897 104.368C91.0897 108.333 94.3529 111.547 98.3783 111.547Z" fill="#2F2E41"/>
<path d="M159.49 115.136C165.528 115.136 170.423 110.315 170.423 104.368C170.423 98.4204 165.528 93.5991 159.49 93.5991C153.452 93.5991 148.557 98.4204 148.557 104.368C148.557 110.315 153.452 115.136 159.49 115.136Z" fill="#3F3D56"/>
<path d="M159.49 111.547C163.516 111.547 166.779 108.333 166.779 104.368C166.779 100.403 163.516 97.1887 159.49 97.1887C155.465 97.1887 152.202 100.403 152.202 104.368C152.202 108.333 155.465 111.547 159.49 111.547Z" fill="#2F2E41"/>
<path d="M122.206 91.3901C122.671 91.3901 123.047 91.0192 123.047 90.5618C123.047 90.1043 122.671 89.7334 122.206 89.7334C121.742 89.7334 121.365 90.1043 121.365 90.5618C121.365 91.0192 121.742 91.3901 122.206 91.3901Z" fill="#2F2E41"/>
<path d="M125.851 91.3901C126.315 91.3901 126.692 91.0192 126.692 90.5618C126.692 90.1043 126.315 89.7334 125.851 89.7334C125.386 89.7334 125.01 90.1043 125.01 90.5618C125.01 91.0192 125.386 91.3901 125.851 91.3901Z" fill="#2F2E41"/>
<path d="M124.169 94.4275C124.633 94.4275 125.01 94.0566 125.01 93.5991C125.01 93.1416 124.633 92.7708 124.169 92.7708C123.704 92.7708 123.328 93.1416 123.328 93.5991C123.328 94.0566 123.704 94.4275 124.169 94.4275Z" fill="#2F2E41"/>
<path d="M127.533 94.4275C127.997 94.4275 128.374 94.0566 128.374 93.5991C128.374 93.1416 127.997 92.7708 127.533 92.7708C127.068 92.7708 126.692 93.1416 126.692 93.5991C126.692 94.0566 127.068 94.4275 127.533 94.4275Z" fill="#2F2E41"/>
<path d="M130.897 94.4275C131.361 94.4275 131.738 94.0566 131.738 93.5991C131.738 93.1416 131.361 92.7708 130.897 92.7708C130.432 92.7708 130.056 93.1416 130.056 93.5991C130.056 94.0566 130.432 94.4275 130.897 94.4275Z" fill="#2F2E41"/>
<path d="M134.261 94.4275C134.725 94.4275 135.102 94.0566 135.102 93.5991C135.102 93.1416 134.725 92.7708 134.261 92.7708C133.796 92.7708 133.42 93.1416 133.42 93.5991C133.42 94.0566 133.796 94.4275 134.261 94.4275Z" fill="#2F2E41"/>
<path d="M129.495 91.3901C129.959 91.3901 130.336 91.0192 130.336 90.5618C130.336 90.1043 129.959 89.7334 129.495 89.7334C129.03 89.7334 128.654 90.1043 128.654 90.5618C128.654 91.0192 129.03 91.3901 129.495 91.3901Z" fill="#2F2E41"/>
<path d="M133.139 91.3901C133.604 91.3901 133.98 91.0192 133.98 90.5618C133.98 90.1043 133.604 89.7334 133.139 89.7334C132.675 89.7334 132.298 90.1043 132.298 90.5618C132.298 91.0192 132.675 91.3901 133.139 91.3901Z" fill="#2F2E41"/>
<path d="M136.783 91.3901C137.248 91.3901 137.624 91.0192 137.624 90.5618C137.624 90.1043 137.248 89.7334 136.783 89.7334C136.319 89.7334 135.943 90.1043 135.943 90.5618C135.943 91.0192 136.319 91.3901 136.783 91.3901Z" fill="#2F2E41"/>
<path d="M132.859 116.103H125.57C125.236 116.103 124.915 115.972 124.678 115.739C124.442 115.506 124.309 115.19 124.309 114.86C124.309 114.531 124.442 114.215 124.678 113.982C124.915 113.749 125.236 113.618 125.57 113.618H132.859C133.193 113.618 133.514 113.749 133.751 113.982C133.988 114.215 134.12 114.531 134.12 114.86C134.12 115.19 133.988 115.506 133.751 115.739C133.514 115.972 133.193 116.103 132.859 116.103Z" fill="#2F2E41"/>
<path d="M84.5982 62.0901C84.1279 62.0888 83.6716 61.9315 83.3032 61.6434C82.9347 61.3554 82.6756 60.9535 82.5675 60.5026L81.4497 55.8283C81.3233 55.297 81.4161 54.738 81.7078 54.2741C81.9996 53.8102 82.4664 53.4793 83.0057 53.3542C83.5449 53.2291 84.1126 53.3199 84.5839 53.6068C85.0552 53.8937 85.3916 54.3531 85.5192 54.8842L86.6369 59.5584C86.7089 59.861 86.7104 60.1756 86.6414 60.4789C86.5725 60.7821 86.4349 61.0661 86.2388 61.3096C86.0428 61.553 85.7934 61.7497 85.5093 61.8849C85.2252 62.02 84.9137 62.0902 84.5982 62.0901Z" fill="#3F3D56"/>
<path d="M174.111 61.814C173.796 61.8141 173.484 61.7439 173.2 61.6087C172.916 61.4736 172.667 61.2769 172.471 61.0334C172.275 60.79 172.137 60.506 172.068 60.2027C171.999 59.8995 172.001 59.5848 172.073 59.2823L173.19 54.6081C173.318 54.077 173.654 53.6176 174.126 53.3307C174.597 53.0438 175.165 52.9529 175.704 53.078C176.243 53.2032 176.71 53.534 177.002 53.998C177.294 54.4619 177.386 55.0209 177.26 55.5522L176.142 60.2264C176.034 60.6774 175.775 61.0793 175.406 61.3673C175.038 61.6554 174.582 61.8127 174.111 61.814Z" fill="#3F3D56"/>
<path d="M69.1759 75.887C68.488 75.8871 67.8167 75.6785 67.2534 75.2896L64.9072 73.6718C64.4657 73.3672 64.1053 72.9623 63.8564 72.4914C63.6074 72.0205 63.4774 71.4975 63.4772 70.9666V66.0121C63.4783 65.0172 63.8801 64.0634 64.5943 63.3599C65.3085 62.6564 66.2769 62.2607 67.2869 62.2595H70.8806C71.8907 62.2607 72.859 62.6564 73.5733 63.3599C74.2875 64.0634 74.6892 65.0172 74.6904 66.0121V71.0152C74.6894 71.5324 74.5655 72.0422 74.3287 72.5038C74.0919 72.9653 73.7487 73.3659 73.3265 73.6734L71.1645 75.2427C70.5886 75.6613 69.8917 75.8871 69.1759 75.887Z" fill="#3F3D56"/>
<path d="M70.8806 94.0132H67.2869C66.2769 94.012 65.3085 93.6163 64.5943 92.9128C63.8801 92.2093 63.4783 91.2555 63.4772 90.2606V85.3061C63.4774 84.7752 63.6074 84.2522 63.8564 83.7813C64.1053 83.3104 64.4657 82.9055 64.9072 82.6009L67.2534 80.9831C67.8282 80.5864 68.5149 80.3776 69.2166 80.386C69.9184 80.3944 70.5997 80.6197 71.1645 81.03L73.3265 82.5993C73.7487 82.9068 74.0919 83.3074 74.3287 83.7689C74.5655 84.2305 74.6894 84.7403 74.6904 85.2574V90.2606C74.6892 91.2555 74.2875 92.2093 73.5733 92.9128C72.859 93.6163 71.8907 94.012 70.8806 94.0132Z" fill="#3F3D56"/>
<path d="M82.0938 83.6588H77.0637C76.5247 83.6586 75.9937 83.5305 75.5156 83.2853C75.0376 83.0401 74.6265 82.6851 74.3172 82.2503L72.6748 79.9393C72.272 79.3732 72.0599 78.6968 72.0685 78.0055C72.077 77.3143 72.3058 76.6432 72.7224 76.0869L74.3156 73.9574C74.6278 73.5416 75.0345 73.2035 75.5031 72.9703C75.9717 72.737 76.4892 72.615 77.0143 72.614H82.0938C83.1039 72.6151 84.0722 73.0109 84.7864 73.7144C85.5007 74.4179 85.9024 75.3717 85.9036 76.3666V79.9062C85.9024 80.9011 85.5007 81.8549 84.7864 82.5584C84.0722 83.2619 83.1039 83.6576 82.0938 83.6588Z" fill="#3F3D56"/>
<path d="M60.8234 83.6588H55.7933C54.7832 83.6576 53.8149 83.2619 53.1007 82.5584C52.3864 81.8549 51.9847 80.9011 51.9835 79.9062V76.3666C51.9847 75.3717 52.3864 74.4179 53.1006 73.7144C53.8149 73.0109 54.7832 72.6151 55.7933 72.614H60.8728C61.3978 72.615 61.9154 72.737 62.384 72.9703C62.8526 73.2035 63.2593 73.5416 63.5715 73.9574L65.1647 76.0869C65.5813 76.6432 65.8101 77.3143 65.8186 78.0055C65.8272 78.6968 65.6151 79.3732 65.2123 79.9393L63.5699 82.2503C63.2606 82.6851 62.8495 83.0401 62.3715 83.2853C61.8934 83.5305 61.3624 83.6586 60.8234 83.6588Z" fill="#3F3D56"/>
<path d="M189.486 70.4051C193.047 70.4051 195.933 67.5618 195.933 64.0543C195.933 60.5469 193.047 57.7036 189.486 57.7036C185.925 57.7036 183.038 60.5469 183.038 64.0543C183.038 67.5618 185.925 70.4051 189.486 70.4051Z" fill="#3F3D56"/>
<path d="M203.783 85.0394C207.343 85.0394 210.23 82.196 210.23 78.6886C210.23 75.1812 207.343 72.3379 203.783 72.3379C200.222 72.3379 197.335 75.1812 197.335 78.6886C197.335 82.196 200.222 85.0394 203.783 85.0394Z" fill="#3F3D56"/>
<path d="M189.486 98.8453C193.047 98.8453 195.933 96.0019 195.933 92.4945C195.933 88.9871 193.047 86.1438 189.486 86.1438C185.925 86.1438 183.038 88.9871 183.038 92.4945C183.038 96.0019 185.925 98.8453 189.486 98.8453Z" fill="#3F3D56"/>
<path d="M175.189 84.7632C178.75 84.7632 181.636 81.9199 181.636 78.4125C181.636 74.9051 178.75 72.0618 175.189 72.0618C171.628 72.0618 168.741 74.9051 168.741 78.4125C168.741 81.9199 171.628 84.7632 175.189 84.7632Z" fill="#3F3D56"/>
<path d="M203.783 82.8304C202.951 82.8304 202.138 82.5875 201.446 82.1324C200.755 81.6773 200.216 81.0305 199.898 80.2737C199.579 79.5168 199.496 78.6841 199.658 77.8806C199.821 77.0772 200.221 76.3392 200.809 75.76C201.397 75.1807 202.147 74.7863 202.962 74.6265C203.778 74.4666 204.623 74.5487 205.392 74.8621C206.16 75.1756 206.817 75.7065 207.279 76.3876C207.741 77.0687 207.988 77.8695 207.988 78.6887C207.986 79.7867 207.543 80.8395 206.755 81.616C205.966 82.3924 204.897 82.8292 203.783 82.8304ZM203.783 75.0991C203.062 75.0991 202.357 75.3096 201.758 75.7041C201.159 76.0985 200.692 76.6591 200.416 77.315C200.14 77.9709 200.068 78.6926 200.208 79.3889C200.349 80.0853 200.696 80.7248 201.206 81.2268C201.715 81.7289 202.365 82.0707 203.072 82.2092C203.779 82.3477 204.511 82.2767 205.177 82.005C205.843 81.7333 206.412 81.2732 206.813 80.6829C207.213 80.0926 207.427 79.3986 207.427 78.6887C207.426 77.737 207.042 76.8246 206.358 76.1516C205.675 75.4787 204.749 75.1002 203.783 75.0991Z" fill="#E6E6E6"/>
<path d="M193.991 67.1357L185.541 67.018L189.87 59.8684L193.991 67.1357ZM186.52 66.4792L193.028 66.5699L189.854 60.9729L186.52 66.4792Z" fill="#E6E6E6"/>
<path d="M178.553 81.726H171.825V75.0991H178.553V81.726ZM172.385 81.1737H177.992V75.6514H172.385V81.1737Z" fill="#E6E6E6"/>
<path d="M192.965 95.3458L189.883 92.3157L192.601 89.6434L192.204 89.2524L189.486 91.9253L186.767 89.2524L186.371 89.6434L189.089 92.3157L186.007 95.3458L186.403 95.7368L189.486 92.7059L192.569 95.7368L192.965 95.3458Z" fill="#E6E6E6"/>
<path d="M69.1665 20.3885C68.3348 20.3885 67.5219 20.1456 66.8304 19.6905C66.1389 19.2354 65.5999 18.5886 65.2816 17.8318C64.9634 17.0749 64.8801 16.2422 65.0423 15.4387C65.2046 14.6353 65.6051 13.8973 66.1932 13.3181C66.7812 12.7388 67.5305 12.3444 68.3462 12.1846C69.1618 12.0248 70.0073 12.1068 70.7757 12.4203C71.544 12.7337 72.2008 13.2646 72.6628 13.9457C73.1248 14.6268 73.3715 15.4276 73.3715 16.2468C73.3702 17.3449 72.9268 18.3976 72.1385 19.1741C71.3502 19.9505 70.2813 20.3873 69.1665 20.3885ZM69.1665 12.6572C68.4457 12.6572 67.7411 12.8677 67.1418 13.2622C66.5425 13.6566 66.0754 14.2172 65.7996 14.8731C65.5238 15.529 65.4516 16.2507 65.5922 16.9471C65.7328 17.6434 66.0799 18.2829 66.5896 18.785C67.0993 19.287 67.7486 19.6288 68.4555 19.7673C69.1625 19.9058 69.8952 19.8348 70.5611 19.5631C71.227 19.2914 71.7962 18.8313 72.1966 18.241C72.5971 17.6507 72.8108 16.9567 72.8108 16.2468C72.8097 15.2951 72.4254 14.3827 71.7422 13.7097C71.059 13.0368 70.1327 12.6583 69.1665 12.6572Z" fill="#E6E6E6"/>
<path d="M59.6555 13.5297L51.2051 13.412L55.5339 6.26245L59.6555 13.5297ZM52.184 12.8733L58.6924 12.964L55.518 7.36693L52.184 12.8733Z" fill="#E6E6E6"/>
<path d="M47.2179 23.6029H40.49V16.9761H47.2179V23.6029ZM41.0507 23.0507H46.6573V17.5283H41.0507V23.0507Z" fill="#E6E6E6"/>
<path d="M53.3028 35.941L50.2206 32.9109L52.9387 30.2389L52.5426 29.8479L49.8237 32.5207L47.1047 29.8479L46.7086 30.2389L49.4267 32.9109L46.3445 35.941L46.7406 36.332L49.8237 33.301L52.9067 36.332L53.3028 35.941Z" fill="#E6E6E6"/>
<path opacity="0.2" d="M243.169 95.1177L232.288 103.184L244.571 97.8789L243.169 95.1177Z" fill="black"/>
<path d="M41.8918 105.058L28.1556 105.61L26.4736 96.4982L38.2475 92.9087L41.8918 105.058Z" fill="#A0616A"/>
<path d="M36.8415 82.7265L33.7777 79.6538L37.5343 73.9961L43.9639 63.4542C43.7539 63.0001 43.6887 62.4938 43.7771 62.0024C43.8655 61.511 44.1033 61.0576 44.459 60.7022C44.8146 60.3468 45.2715 60.1061 45.7691 60.012C46.2667 59.9179 46.7815 59.9748 47.2456 60.1752C47.7096 60.3756 48.101 60.71 48.3678 61.1342C48.6347 61.5584 48.7646 62.0525 48.7402 62.5509C48.7158 63.0494 48.5383 63.5289 48.2313 63.9259C47.9243 64.3229 47.5021 64.6187 47.0207 64.7742L41.7135 76.0286L36.8415 82.7265Z" fill="#A0616A"/>
<path d="M33.4476 89.7415C33.0879 90.2902 32.5753 90.7253 31.9712 90.9947C31.3671 91.2641 30.697 91.3565 30.0411 91.2608C29.4167 91.1882 28.8274 90.9376 28.3456 90.5398C27.8638 90.142 27.5104 89.6142 27.3288 89.0213C27.1951 88.6005 27.1561 88.1561 27.2147 87.719C27.2733 87.2818 27.4279 86.8625 27.6679 86.4903C29.7175 83.0871 33.4976 78.5927 33.5355 78.5478L33.5957 78.4763L39.9713 79.8369L33.4476 89.7415Z" fill="#FF2148"/>
<path d="M38.6178 165.056L42.4272 165.056L44.2393 150.583L38.6169 150.583L38.6178 165.056Z" fill="#A0616A"/>
<path d="M37.6459 163.831L45.148 163.831H45.1484C46.4163 163.831 47.6323 164.327 48.5289 165.21C49.4255 166.093 49.9292 167.291 49.9293 168.54V168.693L37.6461 168.693L37.6459 163.831Z" fill="#2F2E41"/>
<path d="M8.95605 163.432L12.7226 163.993L16.7111 149.949L11.7734 149.122L8.95605 163.432Z" fill="#A0616A"/>
<path d="M8.18107 162.078L15.599 163.182L15.5993 163.182C16.853 163.369 17.98 164.038 18.7325 165.044C19.485 166.049 19.8013 167.307 19.6119 168.542L19.5886 168.693L7.44336 166.885L8.18107 162.078Z" fill="#2F2E41"/>
<path d="M27.5948 102.849L40.7703 100.64L44.847 108.917L45.0024 162.936L37.7713 162.892L34.7485 119.17L15.4835 159.57L7.71533 158.651L24.6499 115.344C24.6499 115.344 23.7177 107.693 26.6696 103.867L27.5948 102.849Z" fill="#2F2E41"/>
<path d="M22.7036 86.5417C22.5022 85.9459 22.4808 85.3053 22.642 84.6978C22.8032 84.0902 23.14 83.5418 23.6115 83.1192L25.484 81.4428L30.7629 80.5667L34.0636 79.9758L39.3688 95.1177L26.4839 100.949C25.3531 100.708 24.9014 100.099 25.5594 98.8874L22.7036 86.5417Z" fill="#FF2148"/>
<path d="M34.5287 91.6511L38.2146 89.3342L43.0572 94.1247L52.1984 102.501C52.693 102.393 53.2094 102.435 53.6792 102.622C54.149 102.808 54.5502 103.131 54.8296 103.548C55.1091 103.964 55.2537 104.454 55.2442 104.953C55.2348 105.452 55.0717 105.936 54.7767 106.342C54.4817 106.748 54.0685 107.056 53.592 107.225C53.1154 107.395 52.5978 107.418 52.1077 107.291C51.6176 107.164 51.1781 106.894 50.8473 106.516C50.5164 106.138 50.3099 105.67 50.255 105.174L40.1739 97.7316L34.5287 91.6511Z" fill="#A0616A"/>
<path d="M28.2628 86.9292C27.7922 86.469 27.4661 85.8852 27.3235 85.2473C27.1809 84.6095 27.2277 83.9447 27.4585 83.3323C27.6599 82.7458 28.0308 82.2299 28.5256 81.8479C29.0204 81.4659 29.6176 81.2344 30.2439 81.1819C30.6896 81.1401 31.1391 81.1945 31.5612 81.3413C31.9833 81.4882 32.3678 81.724 32.6878 82.0322C35.6442 84.7112 39.3266 89.2839 39.3634 89.3296L39.4218 89.4024L36.7516 95.2649L28.2628 86.9292Z" fill="#FF2148"/>
<path d="M28.4462 78.7246C31.6465 78.7246 34.2409 76.1692 34.2409 73.017C34.2409 69.8647 31.6465 67.3093 28.4462 67.3093C25.2459 67.3093 22.6515 69.8647 22.6515 73.017C22.6515 76.1692 25.2459 78.7246 28.4462 78.7246Z" fill="#A0616A"/>
<path d="M23.7546 81.1482C22.856 81.148 21.9583 81.0941 21.0663 80.9867L20.944 80.9721L20.0106 75.9809C19.6148 73.865 20.0561 71.6802 21.2441 69.8748C22.4322 68.0694 24.2767 66.7804 26.3992 66.2723C26.5408 66.237 26.6896 66.2408 26.8292 66.2833C26.9688 66.3259 27.0937 66.4055 27.1903 66.5135L27.4129 66.4371C28.2652 66.1443 29.1677 66.0198 30.0688 66.0706C30.97 66.1214 31.8521 66.3466 32.6649 66.7332C33.4778 67.1198 34.2053 67.6603 34.806 68.3239C35.4068 68.9875 35.8689 69.7611 36.1661 70.6006L36.2213 70.7565L34.7357 71.2667C34.2728 71.4257 33.8517 71.6843 33.5031 72.0238C33.1545 72.3632 32.887 72.7749 32.7202 73.2289C32.5534 73.683 32.4915 74.1679 32.5389 74.6485C32.5863 75.1291 32.7419 75.5932 32.9943 76.0072L34.5132 78.4977L34.3514 78.5776C31.0732 80.2424 27.4429 81.1231 23.7546 81.1482Z" fill="#2F2E41"/>
<path d="M222.834 105.033C222.901 104.714 223.038 104.413 223.236 104.152C223.434 103.89 223.687 103.675 223.979 103.521C224.27 103.367 224.592 103.277 224.923 103.259C225.253 103.241 225.583 103.294 225.891 103.415L231.161 97.4324L232.288 101.396L227.111 106.47C226.87 106.964 226.453 107.355 225.94 107.567C225.426 107.78 224.851 107.799 224.324 107.622C223.797 107.445 223.354 107.084 223.08 106.606C222.805 106.129 222.717 105.569 222.834 105.033Z" fill="#FFB6B6"/>
<path d="M246.351 78.7298L248.51 78.6147L248.835 79.9665C248.835 79.9665 248.803 81.6975 246.835 85.2954C244.866 88.8933 229.613 104.912 229.613 104.912L226.31 101.22L234.474 92.936L239.419 84.2538L246.351 78.7298Z" fill="#FF2148"/>
<path d="M0.349575 169H256.65C256.743 169 256.832 168.964 256.898 168.899C256.963 168.834 257 168.747 257 168.656C257 168.564 256.963 168.477 256.898 168.412C256.832 168.348 256.743 168.311 256.65 168.311H0.349575C0.256862 168.311 0.167948 168.348 0.102391 168.412C0.0368331 168.477 0 168.564 0 168.656C0 168.747 0.0368331 168.834 0.102391 168.899C0.167948 168.964 0.256862 169 0.349575 169Z" fill="#CCCCCC"/>
</g>
<defs>
<clipPath id="clip0_7_13">
<rect width="257" height="169" fill="white"/>
</clipPath>
</defs>
</svg>
